<svg xmlns="http://www.w3.org/2000/svg" width="270.512" height="213.184" viewBox="0 0 270.512 213.184">
  <g id="undraw_omega_-4-kob" transform="translate(0 -0.001)">
    <path id="Path_9862" data-name="Path 9862" d="M475.521,321.671l-9.136,4.737,5.043-4.737H455.163V310.236c17.415-12.478,28.631-32.033,28.631-54.016,0-37.687-23.873-68.236-73.608-68.236-27.276,0-46.442,8.76-58.366,22.682v7.282l-1.958-4.866c-9.007,11.757-13.283,26.774-13.283,43.139,0,21.991,11.22,41.55,28.643,54.024v11.427H356.99l1.211,6.4-5.363-6.4H331.407v30.637h68.037V301.379h-4.011c-11.284-7.09-19.066-22.062-19.066-39.39,0-24.171,15.143-43.767,33.82-43.767,15.636,0,28.793,13.736,32.664,32.391l4.949-7.424-4.212,11.9a56.8,56.8,0,0,1,.419,6.9c0,17.328-7.783,32.3-19.066,39.39h-3.995v20.292h-.016v30.637h68.038V321.671Z" transform="translate(-270.657 -154.073)" fill="#3f3d56"/>
    <path id="Path_9863" data-name="Path 9863" d="M622.293,134.523c-1.577,5.83-6.979,9.44-6.979,9.44s-2.845-5.841-1.268-11.671,6.979-9.44,6.979-9.44S623.87,128.693,622.293,134.523Z" transform="translate(-474.55 -107.009)" fill="#5e1b93"/>
    <path id="Path_9864" data-name="Path 9864" d="M592.056,134.523c1.577,5.83,6.979,9.44,6.979,9.44s2.845-5.841,1.268-11.671-6.979-9.44-6.979-9.44S590.479,128.693,592.056,134.523Z" transform="translate(-458.66 -107.009)" fill="#5e1b93"/>
    <path id="Path_9865" data-name="Path 9865" d="M573.479,148.512c4.327,4.212,4.856,10.688,4.856,10.688s-6.487-.354-10.815-4.567-4.856-10.688-4.856-10.688S569.152,144.3,573.479,148.512Z" transform="translate(-437.765 -122.251)" fill="#3f3d56"/>
    <path id="Path_9866" data-name="Path 9866" d="M624.012,148.512c-4.327,4.212-4.856,10.688-4.856,10.688s6.487-.354,10.815-4.567,4.856-10.688,4.856-10.688S628.339,144.3,624.012,148.512Z" transform="translate(-478.586 -122.251)" fill="#3f3d56"/>
    <path id="Path_9867" data-name="Path 9867" d="M501.523,542.437c4.521,4,5.355,10.447,5.355,10.447s-6.5-.047-11.018-4.051-5.355-10.447-5.355-10.447S497,538.434,501.523,542.437Z" transform="translate(-385.622 -407.276)" fill="#5e1b93"/>
    <path id="Path_9868" data-name="Path 9868" d="M491.457,395.012c2.485,5.5,8.392,8.209,8.392,8.209s1.879-6.22-.606-11.724-8.392-8.209-8.392-8.209S488.973,389.508,491.457,395.012Z" transform="translate(-385.381 -295.201)" fill="#5e1b93"/>
    <path id="Path_9869" data-name="Path 9869" d="M472.632,412.361c4.943,3.47,6.5,9.779,6.5,9.779s-6.461.683-11.4-2.787-6.5-9.779-6.5-9.779S467.689,408.891,472.632,412.361Z" transform="translate(-364.466 -314.156)" fill="#3f3d56"/>
    <path id="Path_9870" data-name="Path 9870" d="M547.88,462.126c-4.327,4.212-4.856,10.688-4.856,10.688s6.487-.354,10.815-4.567,4.856-10.688,4.856-10.688S552.207,457.914,547.88,462.126Z" transform="translate(-423.572 -348.87)" fill="#3f3d56"/>
    <path id="Path_9871" data-name="Path 9871" d="M528.878,639.605c-5.736,1.888-9.051,7.476-9.051,7.476s5.986,2.527,11.722.639,9.051-7.476,9.051-7.476S534.614,637.717,528.878,639.605Z" transform="translate(-406.81 -479.911)" fill="#3f3d56"/>
    <path id="Path_9872" data-name="Path 9872" d="M397.309,541.538l-.552-.06a14.962,14.962,0,0,1,3.356-8.036c2.8-3.282,6.928-4.928,10.921-6.519.727-.29,1.451-.579,2.164-.876a44.815,44.815,0,0,0,8.307-4.413c9.607-6.638,15.933-18.734,16.922-32.357.788-10.853-1.544-22.914-7.131-36.875l.515-.206c5.619,14.04,7.964,26.182,7.169,37.12-1,13.788-7.417,26.04-17.161,32.773a45.322,45.322,0,0,1-8.409,4.469c-.716.3-1.443.588-2.172.879-3.93,1.567-7.993,3.187-10.7,6.364A14.4,14.4,0,0,0,397.309,541.538Z" transform="translate(-317.88 -344.994)" fill="#3f3d56"/>
    <circle id="Ellipse_13" data-name="Ellipse 13" cx="5.271" cy="5.271" r="5.271" transform="translate(91.504 81.43)" fill="#3f3d56"/>
    <path id="Path_9873" data-name="Path 9873" d="M629.523,433.437c4.521,4,5.355,10.447,5.355,10.447s-6.5-.047-11.018-4.051-5.355-10.447-5.355-10.447S625,429.434,629.523,433.437Z" transform="translate(-478.116 -328.512)" fill="#5e1b93"/>
    <path id="Path_9874" data-name="Path 9874" d="M619.458,286.012c2.485,5.5,8.392,8.209,8.392,8.209s1.879-6.22-.606-11.724-8.392-8.209-8.392-8.209S616.973,280.508,619.458,286.012Z" transform="translate(-477.874 -216.437)" fill="#5e1b93"/>
    <path id="Path_9875" data-name="Path 9875" d="M600.632,303.361c4.943,3.47,6.5,9.779,6.5,9.779s-6.461.683-11.4-2.787-6.5-9.779-6.5-9.779S595.689,299.891,600.632,303.361Z" transform="translate(-456.96 -235.392)" fill="#3f3d56"/>
    <path id="Path_9876" data-name="Path 9876" d="M675.88,353.126c-4.327,4.212-4.856,10.688-4.856,10.688s6.487-.354,10.815-4.567,4.856-10.688,4.856-10.688S680.207,348.914,675.88,353.126Z" transform="translate(-516.066 -270.106)" fill="#3f3d56"/>
    <path id="Path_9877" data-name="Path 9877" d="M656.878,530.605c-5.736,1.888-9.051,7.476-9.051,7.476s5.986,2.527,11.722.639,9.051-7.476,9.051-7.476S662.614,528.717,656.878,530.605Z" transform="translate(-499.303 -401.147)" fill="#3f3d56"/>
    <path id="Path_9878" data-name="Path 9878" d="M525.309,432.538l-.552-.06a14.962,14.962,0,0,1,3.356-8.036c2.8-3.282,6.928-4.928,10.921-6.519.727-.29,1.451-.579,2.164-.876a44.791,44.791,0,0,0,8.307-4.413c9.607-6.638,15.933-18.734,16.922-32.357.788-10.853-1.544-22.914-7.131-36.874l.515-.206c5.619,14.04,7.964,26.182,7.169,37.12-1,13.788-7.417,26.04-17.16,32.773a45.3,45.3,0,0,1-8.409,4.469c-.716.3-1.443.588-2.172.879-3.93,1.567-7.993,3.187-10.7,6.364A14.4,14.4,0,0,0,525.309,432.538Z" transform="translate(-410.373 -266.231)" fill="#3f3d56"/>
    <circle id="Ellipse_14" data-name="Ellipse 14" cx="5.271" cy="5.271" r="5.271" transform="translate(127.01 51.194)" fill="#3f3d56"/>
    <path id="Path_9879" data-name="Path 9879" d="M268.261,493.328c6.038.13,10.841,4.5,10.841,4.5s-4.986,4.165-11.024,4.036-10.841-4.5-10.841-4.5S262.223,493.2,268.261,493.328Z" transform="translate(-217.062 -374.714)" fill="#5e1b93"/>
    <path id="Path_9880" data-name="Path 9880" d="M166.6,395.248c5.455,2.591,11.71.834,11.71.834s-2.589-5.959-8.044-8.55-11.71-.834-11.71-.834S161.142,392.656,166.6,395.248Z" transform="translate(-145.752 -297.244)" fill="#5e1b93"/>
    <path id="Path_9881" data-name="Path 9881" d="M162.2,409.613c6.014-.55,11.278,3.259,11.278,3.259s-4.487,4.7-10.5,5.249-11.278-3.259-11.278-3.259S156.182,410.163,162.2,409.613Z" transform="translate(-140.796 -314.184)" fill="#3f3d56"/>
    <path id="Path_9882" data-name="Path 9882" d="M268.867,386.215c-.576,6.012,3.208,11.293,3.208,11.293s4.719-4.466,5.3-10.477-3.208-11.293-3.208-11.293S269.444,380.2,268.867,386.215Z" transform="translate(-225.423 -289.745)" fill="#3f3d56"/>
    <path id="Path_9883" data-name="Path 9883" d="M365.268,527.94c-3.154,5.15-2.069,11.556-2.069,11.556s6.2-1.944,9.354-7.093,2.069-11.556,2.069-11.556S368.423,522.79,365.268,527.94Z" transform="translate(-293.5 -394.601)" fill="#3f3d56"/>
    <path id="Path_9884" data-name="Path 9884" d="M256.706,511.817a14.962,14.962,0,0,1-2.637-8.3c.013-4.315,2.1-8.24,4.114-12.036.367-.691.732-1.379,1.084-2.067a44.777,44.777,0,0,0,3.482-8.738c3.034-11.276.037-24.594-8.018-35.624-6.417-8.787-16-16.479-29.286-23.514l.259-.49c13.366,7.075,23.007,14.82,29.474,23.677,8.153,11.165,11.183,24.658,8.105,36.1a45.328,45.328,0,0,1-3.524,8.847c-.353.69-.72,1.381-1.088,2.075-1.984,3.736-4.036,7.6-4.049,11.778a14.4,14.4,0,0,0,2.542,7.987Z" transform="translate(-194.089 -322.487)" fill="#3f3d56"/>
    <circle id="Ellipse_15" data-name="Ellipse 15" cx="5.271" cy="5.271" r="5.271" transform="translate(0 88.75)" fill="#3f3d56"/>
    <path id="Path_9885" data-name="Path 9885" d="M265.6,183.328c-6.038.13-10.841,4.5-10.841,4.5s4.986,4.165,11.024,4.036,10.841-4.5,10.841-4.5S271.633,183.2,265.6,183.328Z" transform="translate(-215.268 -150.707)" fill="#5e1b93"/>
    <path id="Path_9886" data-name="Path 9886" d="M372.759,85.248c-5.455,2.591-11.71.834-11.71.834s2.589-5.959,8.044-8.55S380.8,76.7,380.8,76.7,378.214,82.656,372.759,85.248Z" transform="translate(-292.077 -73.236)" fill="#5e1b93"/>
    <path id="Path_9887" data-name="Path 9887" d="M371.885,99.613c-6.014-.55-11.278,3.258-11.278,3.258s4.487,4.7,10.5,5.249,11.278-3.259,11.278-3.259S377.9,100.163,371.885,99.613Z" transform="translate(-291.757 -90.177)" fill="#3f3d56"/>
    <path id="Path_9888" data-name="Path 9888" d="M299.482,76.216c.576,6.012-3.208,11.293-3.208,11.293s-4.719-4.466-5.3-10.477,3.208-11.293,3.208-11.293S298.906,70.2,299.482,76.216Z" transform="translate(-241.4 -65.738)" fill="#3f3d56"/>
    <path id="Path_9889" data-name="Path 9889" d="M194.85,217.94c3.154,5.15,2.069,11.556,2.069,11.556s-6.2-1.944-9.354-7.093-2.069-11.556-2.069-11.556S191.695,212.79,194.85,217.94Z" transform="translate(-165.09 -170.594)" fill="#3f3d56"/>
    <path id="Path_9890" data-name="Path 9890" d="M232.466,201.817l-.46-.311a14.4,14.4,0,0,0,2.542-7.987c-.013-4.177-2.065-8.04-4.049-11.776-.368-.693-.735-1.385-1.088-2.076a45.308,45.308,0,0,1-3.524-8.847c-3.078-11.437-.048-24.93,8.105-36.1,6.468-8.857,16.109-16.6,29.474-23.677l.26.49c-13.29,7.035-22.869,14.727-29.286,23.514-8.055,11.03-11.052,24.348-8.017,35.624a44.768,44.768,0,0,0,3.482,8.739c.352.688.718,1.377,1.085,2.068,2.016,3.8,4.1,7.721,4.113,12.035a14.962,14.962,0,0,1-2.637,8.3Z" transform="translate(-193.555 -98.479)" fill="#3f3d56"/>
    <circle id="Ellipse_16" data-name="Ellipse 16" cx="5.271" cy="5.271" r="5.271" transform="translate(90.986 2.757)" fill="#3f3d56"/>
    <rect id="Rectangle_2043" data-name="Rectangle 2043" width="253.816" height="0.555" transform="translate(16.644 198.043)" fill="#3f3d56"/>
    <path id="Path_9891" data-name="Path 9891" d="M930.366,471.789s25.52,17.753,20.8,25.8-14.425,26.075-14.425,26.075l-6.935-4.161,2.774-7.49s1.387-10.541,7.212-14.7c0,0-.555-3.329-6.1-5.271s-16.921-11.651-16.921-11.651Z" transform="translate(-693.646 -359.152)" fill="#ffb9b9"/>
    <path id="Path_9892" data-name="Path 9892" d="M926.626,638.491l-9.244-5.3-6.29,8.9s-9.154,2.774-10.818,8.044c0,0,10.264,24.966,13.87,23.3s1.387-9.709,1.387-9.709l6.1-14.424Z" transform="translate(-681.723 -475.785)" fill="#2f2e41"/>
    <path id="Path_9893" data-name="Path 9893" d="M850.774,496.118l16.089,25.243s4.716,21.082,13.038,30.513l9.154-2.774L879.9,527.741s1.942-5.825-3.606-14.979a71.829,71.829,0,0,1-7.767-19.972Z" transform="translate(-645.955 -374.327)" fill="#ffb9b9"/>
    <path id="Path_9894" data-name="Path 9894" d="M961.37,687.289l-11.1,5.825,10.541,11.373s-1.942,2.219-2.219,8.044a44.583,44.583,0,0,0,0,7.49s26.907,11.1,29.4,7.212-8.6-9.986-8.6-9.986l-10.541-15.812Z" transform="translate(-717.854 -514.874)" fill="#2f2e41"/>
    <circle id="Ellipse_17" data-name="Ellipse 17" cx="9.709" cy="9.709" r="9.709" transform="translate(209.258 25.535)" fill="#ffb9b9"/>
    <path id="Path_9895" data-name="Path 9895" d="M756.029,138.551l-4.161,8.877,16.366,25.243-.555-11.651-3.329-7.49-3.051-2.774,2.5-8.044Z" transform="translate(-543.303 -100.117)" fill="#ffb9b9"/>
    <path id="Path_9896" data-name="Path 9896" d="M809.827,237.142l-1.942-2.219s-7.906-3.467-10.68,4.854a52.669,52.669,0,0,0-2.105,10.58,44.374,44.374,0,0,0,1.412,16.743h0s-4.438,14.979-3.051,24.688l-.832,4.993s-10.818,7.767-4.716,9.986,8.322-8.322,8.322-8.322l6.38-25.52-.277-11.1,2.774,2.774Z" transform="translate(-599.182 -187.474)" fill="#ffb9b9"/>
    <path id="Path_9897" data-name="Path 9897" d="M911.274,260.289s5.409,3.19,5.964,5.687,5.548,25.243,5.548,25.243l8.6,24.966s13.592,13.038,6.1,14.147-10.264-12.483-10.264-12.483l-9.986-19.972-2.219-30.791Z" transform="translate(-689.672 -206.321)" fill="#ffb9b9"/>
    <path id="Path_9898" data-name="Path 9898" d="M853.975,150.492s5.619-12.251-9.066-12.238c0,0-9.01-4.733-15.871,6.243l-7.08,11.541,1.809-.36.23,1.8L826.3,158.9l1.736-1.794-.287,2.747,19.888,8.446s-7.5-8.3-4.606-18.093l1.174,2.4Z" transform="translate(-625.131 -117.405)" fill="#2f2e41"/>
    <path id="Path_9899" data-name="Path 9899" d="M871.75,262.5s1.664-4.438.555-6.1-9.154-14.563-9.154-14.563h-.832s3.883,13.176,2.5,15.118c0,0-12.622-20.666-14.841-20.666l.971,1.8-6.076,26.3,2.387,8.9h22.281Z" transform="translate(-641.688 -188.979)" fill="#5e1b93"/>
    <path id="Path_9900" data-name="Path 9900" d="M865.211,400.221l-10.264-6.657s-3.606-22.192-4.993-23.856l.006-.031H827.68l.083.309s-12.76,28.294-9.431,40.222c0,0,0,1.11,7.212,0s21.637-1.664,21.637-1.664S866.6,405.214,865.211,400.221Z" transform="translate(-622.111 -285.365)" fill="#2f2e41"/>
  </g>
</svg>
